

<svg xmlns="http://www.w3.org/2000/svg" xmlns:xlink="http://www.w3.org/1999/xlink" viewBox="0 0 43 43"><path d="M 38.969 21.5 C 38.957 30.335 32.361 37.775 23.591 38.844 C 23.4 38.866 23.209 38.805 23.066 38.677 C 22.924 38.548 22.843 38.365 22.844 38.173 L 22.844 25.531 L 26.875 25.531 C 27.247 25.532 27.603 25.378 27.858 25.107 C 28.113 24.835 28.243 24.47 28.219 24.098 C 28.157 23.382 27.552 22.834 26.833 22.844 L 22.844 22.844 L 22.844 18.812 C 22.844 17.328 24.047 16.125 25.531 16.125 L 28.219 16.125 C 28.591 16.126 28.947 15.972 29.202 15.7 C 29.457 15.429 29.587 15.064 29.563 14.692 C 29.501 13.974 28.894 13.426 28.173 13.437 L 25.531 13.437 C 22.563 13.437 20.156 15.844 20.156 18.812 L 20.156 22.844 L 16.125 22.844 C 15.753 22.843 15.397 22.997 15.142 23.268 C 14.887 23.54 14.757 23.905 14.781 24.277 C 14.843 24.995 15.45 25.543 16.17 25.531 L 20.156 25.531 L 20.156 38.176 C 20.157 38.368 20.077 38.551 19.934 38.679 C 19.792 38.808 19.601 38.869 19.41 38.848 C 10.389 37.749 3.711 29.925 4.043 20.843 C 4.379 11.773 11.726 4.399 20.803 4.046 C 25.551 3.862 30.17 5.619 33.597 8.911 C 37.023 12.203 38.963 16.748 38.969 21.5 Z" fill="#F1C0E8"></path></svg>