
<svg xmlns="http://www.w3.org/2000/svg" xmlns:xlink="http://www.w3.org/1999/xlink" viewBox="0 0 43 43"><path d="M 0 0 L 43 0 L 43 43 L 0 43 Z" fill="transparent"></path><path d="M 16.125 21.5 C 16.125 18.531 18.531 16.125 21.5 16.125 C 24.469 16.125 26.875 18.531 26.875 21.5 C 26.875 24.469 24.469 26.875 21.5 26.875 C 18.531 26.875 16.125 24.469 16.125 21.5 Z"  ></path><path d="M 28.891 4.703 L 14.109 4.703 C 8.914 4.703 4.703 8.914 4.703 14.109 L 4.703 28.891 C 4.703 34.086 8.914 38.297 14.109 38.297 L 28.891 38.297 C 34.086 38.297 38.297 34.086 38.297 28.891 L 38.297 14.109 C 38.297 8.914 34.086 4.703 28.891 4.703 Z M 21.5 29.563 C 17.047 29.563 13.438 25.953 13.438 21.5 C 13.438 17.047 17.047 13.438 21.5 13.438 C 25.953 13.438 29.563 17.047 29.563 21.5 C 29.563 25.953 25.953 29.563 21.5 29.563 Z M 30.234 14.781 C 29.121 14.781 28.219 13.879 28.219 12.766 C 28.219 11.652 29.121 10.75 30.234 10.75 C 31.348 10.75 32.25 11.652 32.25 12.766 C 32.25 13.879 31.348 14.781 30.234 14.781 Z"  fill="#f1c0e8"></path></svg>