
<svg xmlns="http://www.w3.org/2000/svg" xmlns:xlink="http://www.w3.org/1999/xlink" viewBox="0 0 43 43"><path d="M 38.969 21.618 C 38.905 31.106 31.165 38.873 21.678 38.967 C 20.21 38.983 18.746 38.813 17.321 38.463 C 17.148 38.42 16.999 38.31 16.907 38.156 C 16.815 38.003 16.788 37.82 16.832 37.647 L 18.283 31.844 C 19.699 32.553 21.26 32.922 22.844 32.922 C 29.059 32.922 34.047 27.303 33.562 20.6 C 33.202 15.846 30.084 11.747 25.598 10.133 C 21.113 8.519 16.097 9.69 12.791 13.124 C 9.484 16.558 8.504 21.614 10.286 26.035 C 10.423 26.376 10.694 26.646 11.036 26.783 C 11.377 26.919 11.76 26.909 12.094 26.756 C 12.748 26.438 13.043 25.666 12.766 24.994 C 11.394 21.553 12.169 17.628 14.745 14.966 C 17.322 12.305 21.221 11.404 24.704 12.665 C 28.187 13.925 30.606 17.113 30.883 20.806 C 31.242 25.934 27.502 30.234 22.844 30.234 C 21.474 30.234 20.13 29.86 18.957 29.153 L 21.46 19.138 C 21.625 18.424 21.188 17.709 20.477 17.531 C 19.765 17.353 19.043 17.779 18.853 18.487 L 14.341 36.535 C 14.292 36.734 14.154 36.899 13.967 36.984 C 13.78 37.069 13.565 37.064 13.382 36.97 C 7.572 33.921 3.96 27.873 4.031 21.312 C 4.132 11.845 11.87 4.119 21.332 4.031 C 26.015 3.986 30.519 5.823 33.835 9.129 C 37.151 12.436 39 16.935 38.969 21.618 Z" fill="#F1C0E8"></path></svg>
