

<svg xmlns="http://www.w3.org/2000/svg" xmlns:xlink="http://www.w3.org/1999/xlink" viewBox="0 0 43 43"><path d="M 38.969 13.437 L 38.969 20.156 C 38.969 20.898 38.367 21.5 37.625 21.5 C 34.818 21.507 32.051 20.832 29.562 19.533 L 29.562 26.203 C 29.562 33.253 23.847 38.969 16.797 38.969 C 9.747 38.969 4.031 33.253 4.031 26.203 C 4.031 20.005 8.551 14.526 14.546 13.458 C 14.938 13.388 15.34 13.495 15.645 13.751 C 15.949 14.006 16.125 14.384 16.125 14.781 L 16.125 21.952 C 16.125 22.471 15.826 22.944 15.357 23.166 C 13.854 23.879 13.099 25.586 13.583 27.179 C 14.067 28.771 15.644 29.769 17.29 29.525 C 18.936 29.28 20.155 27.867 20.156 26.203 L 20.156 4.031 C 20.156 3.289 20.758 2.688 21.5 2.688 L 28.219 2.688 C 28.961 2.688 29.562 3.289 29.562 4.031 C 29.567 8.482 33.174 12.089 37.625 12.094 C 38.367 12.094 38.969 12.695 38.969 13.437 Z" fill="#F1C0E8"></path></svg>