

<svg xmlns="http://www.w3.org/2000/svg" xmlns:xlink="http://www.w3.org/1999/xlink" viewBox="0 0 43 43"><path d="M 34.938 5.375 L 8.063 5.375 C 6.578 5.375 5.375 6.578 5.375 8.063 L 5.375 32.25 C 5.375 33.734 6.578 34.938 8.063 34.938 L 10.75 34.938 L 10.75 40.313 C 10.75 40.834 11.051 41.308 11.523 41.53 C 11.996 41.751 12.553 41.679 12.954 41.346 L 20.643 34.938 L 27.732 34.938 C 28.361 34.938 28.97 34.717 29.453 34.314 L 36.658 28.309 C 37.272 27.8 37.626 27.043 37.625 26.245 L 37.625 8.063 C 37.625 6.578 36.422 5.375 34.938 5.375 Z M 21.5 22.844 C 21.5 23.586 20.898 24.188 20.156 24.188 C 19.414 24.188 18.813 23.586 18.813 22.844 L 18.813 14.781 C 18.813 14.039 19.414 13.438 20.156 13.438 C 20.898 13.438 21.5 14.039 21.5 14.781 Z M 29.563 22.844 C 29.563 23.586 28.961 24.188 28.219 24.188 C 27.477 24.188 26.875 23.586 26.875 22.844 L 26.875 14.781 C 26.875 14.039 27.477 13.438 28.219 13.438 C 28.961 13.438 29.563 14.039 29.563 14.781 Z" fill="#F1C0E8"></path></svg>