

<svg xmlns="http://www.w3.org/2000/svg" xmlns:xlink="http://www.w3.org/1999/xlink" viewBox="0 0 43 43"><path d="M 0 0 L 43 0 L 43 43 L 0 43 Z" fill="transparent"></path><path d="M 41.27 13.051 L 36.197 18.107 C 35.189 29.848 25.279 38.969 13.437 38.969 C 11.002 38.969 8.986 38.582 7.458 37.827 C 6.232 37.205 5.728 36.55 5.593 36.348 C 5.368 36.006 5.311 35.58 5.439 35.191 C 5.566 34.802 5.864 34.492 6.248 34.35 C 6.282 34.333 10.246 32.821 12.816 29.915 C 11.222 28.78 9.821 27.397 8.667 25.817 C 6.366 22.693 3.93 17.267 5.392 9.171 C 5.485 8.681 5.84 8.281 6.316 8.13 C 6.793 7.973 7.318 8.096 7.676 8.449 C 7.727 8.516 13.32 14.025 20.156 15.806 L 20.156 14.781 C 20.17 12.63 21.037 10.571 22.568 9.059 C 24.099 7.547 26.168 6.705 28.32 6.719 C 31.164 6.759 33.778 8.29 35.206 10.75 L 40.312 10.75 C 40.855 10.748 41.345 11.073 41.555 11.573 C 41.753 12.08 41.642 12.655 41.27 13.051 Z" fill="#F1C0E8"></path></svg>