
<svg xmlns="http://www.w3.org/2000/svg" xmlns:xlink="http://www.w3.org/1999/xlink" viewBox="0 0 43 43"><path d="M 39.36 11.677 C 39.039 10.421 38.133 9.396 36.926 8.922 C 31.168 6.699 22.004 6.719 21.5 6.719 C 20.996 6.719 11.832 6.699 6.074 8.922 C 4.867 9.396 3.961 10.421 3.64 11.677 C 3.205 13.354 2.688 16.417 2.688 21.5 C 2.688 26.583 3.205 29.646 3.64 31.323 C 3.96 32.58 4.866 33.605 6.074 34.079 C 11.59 36.207 20.223 36.281 21.389 36.281 L 21.611 36.281 C 22.777 36.281 31.415 36.207 36.926 34.079 C 38.134 33.605 39.04 32.58 39.36 31.323 C 39.795 29.643 40.313 26.583 40.313 21.5 C 40.313 16.417 39.795 13.354 39.36 11.677 Z M 27.248 22.059 L 19.185 27.434 C 18.979 27.572 18.714 27.585 18.495 27.468 C 18.277 27.351 18.14 27.123 18.141 26.875 L 18.141 16.125 C 18.14 15.877 18.277 15.649 18.495 15.532 C 18.714 15.415 18.979 15.428 19.185 15.566 L 27.248 20.941 C 27.435 21.065 27.548 21.275 27.548 21.5 C 27.548 21.725 27.435 21.935 27.248 22.059 Z" fill="#F1C0E8"></path></svg>
